<?xml version="1.0" encoding="UTF-8" standalone="no"?>
<!DOCTYPE svg PUBLIC "-//W3C//DTD SVG 1.1//EN" "http://www.w3.org/Graphics/SVG/1.1/DTD/svg11.dtd">
<svg version="1.1" xmlns="http://www.w3.org/2000/svg" xmlns:xlink="http://www.w3.org/1999/xlink" preserveAspectRatio="xMidYMid meet" viewBox="0 0 640 640" width="640" height="640"><defs><path d="M441.76 44.01L441.3 44.49L440.84 44.97L440.39 45.44L439.94 45.93L439.5 46.41L439.06 46.89L438.63 47.38L438.21 47.86L437.79 48.35L437.37 48.84L436.96 49.33L436.55 49.83L436.15 50.32L435.76 50.82L435.36 51.31L434.98 51.81L434.59 52.31L434.21 52.81L433.84 53.31L433.46 53.81L433.1 54.32L432.73 54.82L432.37 55.33L432.01 55.83L431.66 56.34L431.31 56.84L430.96 57.35L430.62 57.86L430.28 58.37L429.94 58.88L429.61 59.39L429.27 59.9L428.94 60.41L428.62 60.92L428.29 61.43L427.97 61.94L427.65 62.45L427.33 62.96L427.02 63.48L576 212.46L576.55 212.14L577.09 211.83L577.64 211.51L578.17 211.18L578.71 210.86L579.24 210.53L579.76 210.2L580.29 209.87L580.81 209.53L581.33 209.2L581.84 208.86L582.35 208.51L582.86 208.16L583.37 207.81L583.88 207.46L584.38 207.1L584.88 206.74L585.37 206.38L585.87 206.01L586.36 205.64L586.85 205.26L587.34 204.88L587.83 204.5L588.31 204.11L588.8 203.72L589.28 203.32L589.76 202.92L590.24 202.51L590.72 202.1L591.2 201.69L591.67 201.27L592.15 200.84L592.62 200.41L593.1 199.98L593.57 199.53L594.04 199.09L594.52 198.64L594.99 198.18L595.46 197.72L595.93 197.25L608.52 209.84L606.55 211.77L604.55 213.64L602.53 215.46L600.49 217.2L598.42 218.89L596.33 220.52L594.22 222.08L592.08 223.58L589.91 225.03L587.71 226.41L585.49 227.73L583.23 229L580.95 230.2L578.63 231.34L576.28 232.43L573.89 233.46L571.47 234.42L569.02 235.33L566.53 236.19L564 236.98L561.43 237.72L558.83 238.4L556.18 239.03L553.49 239.6L550.76 240.11L547.99 240.57L545.17 240.97L542.31 241.32L539.4 241.61L536.45 241.85L533.45 242.04L530.4 242.17L527.3 242.24L524.15 242.27L520.95 242.24L517.69 242.16L514.38 242.02L511.02 241.84L507.6 241.6L504.13 241.31L429.11 231.34L439.08 303.21L439.37 306.72L439.61 310.18L439.79 313.57L439.93 316.92L440.01 320.2L440.04 323.43L440.02 326.61L439.94 329.74L439.81 332.81L439.62 335.84L439.38 338.81L439.09 341.74L438.74 344.62L438.34 347.45L437.88 350.24L437.37 352.99L436.8 355.69L436.17 358.35L435.49 360.96L434.75 363.54L433.96 366.08L433.11 368.58L432.19 371.04L431.23 373.47L430.2 375.86L429.11 378.21L427.97 380.53L426.77 382.82L425.5 385.08L424.18 387.31L422.8 389.51L421.36 391.68L419.85 393.82L418.29 395.94L416.66 398.03L414.97 400.09L413.23 402.14L411.42 404.16L409.54 406.15L407.61 408.13L405.63 410.07L403.63 411.94L401.61 413.75L399.57 415.5L397.51 417.19L395.42 418.81L393.3 420.38L391.16 421.88L388.99 423.32L386.8 424.7L384.57 426.03L382.31 427.29L380.03 428.49L377.71 429.64L375.36 430.72L372.98 431.75L370.56 432.72L368.1 433.63L365.61 434.48L363.08 435.28L360.52 436.02L357.91 436.7L355.26 437.32L352.57 437.89L349.85 438.41L347.07 438.87L344.26 439.27L341.39 439.62L338.49 439.91L335.53 440.15L332.53 440.33L329.48 440.46L326.38 440.54L323.23 440.56L320.03 440.53L316.77 440.45L313.47 440.32L310.1 440.13L306.69 439.9L303.21 439.61L230.82 429.64L240.79 504.13L241.08 507.64L241.31 511.1L241.5 514.49L241.63 517.83L241.72 521.12L241.75 524.35L241.72 527.53L241.65 530.66L241.52 533.74L241.34 536.76L241.1 539.74L240.81 542.67L240.47 545.56L240.07 548.39L239.62 551.19L239.11 553.94L238.55 556.65L237.93 559.31L237.25 561.94L236.52 564.52L235.74 567.07L234.9 569.58L234 572.06L233.04 574.5L232.03 576.9L230.96 579.27L229.84 581.61L228.65 583.92L227.41 586.2L226.11 588.45L224.75 590.67L223.33 592.87L221.85 595.04L220.31 597.18L218.72 599.3L217.06 601.39L215.35 603.47L213.57 605.52L211.73 607.56L209.84 609.57L197.25 596.98L197.76 596.47L198.26 595.95L198.76 595.43L199.26 594.91L199.75 594.38L200.24 593.85L200.73 593.31L201.21 592.77L201.68 592.23L202.16 591.69L202.62 591.14L203.09 590.59L203.54 590.04L204 589.48L204.45 588.92L204.89 588.36L205.33 587.8L205.77 587.24L206.2 586.67L206.62 586.1L207.04 585.53L207.46 584.95L207.87 584.38L208.27 583.8L208.68 583.22L209.07 582.64L209.46 582.06L209.84 581.48L210.22 580.9L210.6 580.31L210.97 579.73L211.33 579.14L211.69 578.55L212.04 577.96L212.39 577.37L212.73 576.79L213.06 576.2L213.39 575.61L213.72 575.02L214.03 574.43L66.1 426.49L65.51 426.81L64.92 427.13L64.33 427.46L63.74 427.8L63.15 428.14L62.56 428.48L61.97 428.84L61.39 429.19L60.8 429.56L60.21 429.93L59.63 430.3L59.04 430.68L58.46 431.06L57.88 431.45L57.3 431.85L56.72 432.25L56.15 432.66L55.57 433.07L55 433.48L54.43 433.9L53.86 434.33L53.29 434.76L52.72 435.19L52.16 435.63L51.6 436.08L51.04 436.53L50.49 436.98L49.93 437.44L49.38 437.9L48.84 438.37L48.29 438.84L47.75 439.32L47.21 439.8L46.68 440.28L46.15 440.77L45.62 441.26L45.09 441.76L44.57 442.26L44.05 442.77L43.54 443.28L30.95 430.69L32.93 428.75L34.93 426.88L36.95 425.07L38.99 423.32L41.05 421.63L43.14 420.01L45.26 418.44L47.4 416.94L49.57 415.5L51.76 414.11L53.99 412.79L56.24 411.53L58.53 410.33L60.85 409.18L63.2 408.1L65.58 407.07L68 406.1L70.46 405.19L72.95 404.34L75.48 403.54L78.04 402.8L80.65 402.12L83.29 401.49L85.98 400.93L88.71 400.41L91.48 399.95L94.3 399.55L97.16 399.2L100.07 398.91L103.02 398.67L106.03 398.49L109.08 398.36L112.18 398.28L115.33 398.26L118.53 398.28L121.78 398.37L125.09 398.5L128.45 398.69L131.87 398.92L135.34 399.21L210.36 409.18L200.39 337.31L200.1 333.8L199.86 330.35L199.67 326.96L199.53 323.62L199.44 320.35L199.41 317.12L199.42 313.95L199.49 310.84L199.61 307.78L199.78 304.76L200 301.8L200.28 298.88L200.62 296.02L201.01 293.2L201.45 290.42L201.95 287.69L202.51 285L203.13 282.35L203.8 279.75L204.52 277.18L205.31 274.65L206.16 272.16L207.06 269.71L208.02 267.28L209.05 264.9L210.13 262.54L211.27 260.22L212.48 257.93L213.75 255.67L215.07 253.43L216.46 251.23L217.92 249.05L219.44 246.89L221.02 244.76L222.66 242.65L224.37 240.56L226.15 238.49L227.99 236.44L229.9 234.41L231.87 232.39L233.85 230.46L235.84 228.58L237.86 226.77L239.91 225.03L241.97 223.34L244.06 221.71L246.17 220.15L248.32 218.64L250.48 217.2L252.68 215.82L254.91 214.5L257.16 213.23L259.45 212.03L261.77 210.89L264.12 209.8L266.5 208.77L268.92 207.81L271.37 206.89L273.86 206.04L276.39 205.25L278.96 204.51L281.57 203.83L284.21 203.2L286.9 202.63L289.63 202.12L292.4 201.66L295.22 201.26L298.08 200.91L300.99 200.62L303.94 200.38L306.94 200.19L310 200.06L313.1 199.98L316.25 199.96L319.45 199.99L322.7 200.07L326.01 200.21L329.37 200.39L332.79 200.63L336.26 200.92L399.21 209.31L408.13 210.36L398.16 135.87L397.87 132.36L397.63 128.91L397.44 125.52L397.3 122.18L397.21 118.9L397.18 115.68L397.19 112.51L397.26 109.4L397.38 106.33L397.55 103.32L397.78 100.36L398.06 97.44L398.39 94.57L398.78 91.75L399.22 88.98L399.73 86.25L400.28 83.56L400.9 80.91L401.57 78.3L402.3 75.74L403.08 73.21L403.93 70.72L404.83 68.26L405.79 65.84L406.82 63.46L407.9 61.1L409.04 58.78L410.25 56.49L411.52 54.23L412.84 51.99L414.24 49.78L415.69 47.6L417.21 45.45L418.79 43.31L420.43 41.2L422.14 39.12L423.92 37.05L425.76 35L427.67 32.97L429.64 30.95L442.23 43.54L441.76 44.01ZM102.29 416.09L101.92 416.13L101.55 416.16L101.17 416.2L100.78 416.25L100.39 416.29L99.98 416.34L99.57 416.39L99.16 416.45L98.73 416.5L98.3 416.56L97.86 416.62L97.42 416.69L96.97 416.76L96.51 416.82L96.04 416.9L95.56 416.97L95.08 417.05L94.59 417.13L94.1 417.21L93.59 417.3L93.08 417.38L92.57 417.48L92.04 417.57L91.51 417.66L90.97 417.76L90.42 417.86L89.87 417.97L89.31 418.07L88.74 418.18L88.16 418.29L87.58 418.41L86.99 418.52L86.39 418.64L85.79 418.77L85.18 418.89L84.56 419.02L83.93 419.15L220.85 556.07L220.97 555.59L221.08 555.12L221.2 554.65L221.31 554.18L221.42 553.7L221.53 553.23L221.63 552.76L221.73 552.28L221.84 551.81L221.93 551.34L222.03 550.86L222.13 550.39L222.22 549.91L222.31 549.43L222.4 548.96L222.49 548.48L222.57 548L222.66 547.52L222.74 547.04L222.82 546.56L222.9 546.07L222.97 545.59L223.05 545.11L223.12 544.62L223.19 544.13L223.26 543.65L223.32 543.16L223.39 542.67L223.45 542.17L223.51 541.68L223.57 541.19L223.62 540.69L223.68 540.19L223.73 539.69L223.78 539.19L223.83 538.69L223.87 538.18L223.92 537.67L223.96 537.17L224 536.66L103.34 416L103 416.03L102.65 416.06L102.29 416.09ZM223.4 510.71L223.37 510.6L223.33 510.48L223.3 510.36L223.27 510.24L223.25 510.12L223.22 510L223.2 509.88L223.17 509.76L223.15 509.64L223.13 509.52L223.11 509.4L223.09 509.28L223.08 509.15L223.06 509.03L223.05 508.9L223.04 508.78L223.03 508.65L223.02 508.52L223.01 508.4L223 508.27L222.99 508.14L222.98 508L222.98 507.87L222.97 507.74L222.97 507.6L222.96 507.47L222.96 507.33L222.96 507.19L222.96 507.05L222.96 506.91L222.95 506.76L222.95 506.62L222.95 506.47L222.95 506.32L222.95 506.17L222.95 506.02L222.95 505.86L222.95 505.7L220.33 485.77L153.7 419.15L133.25 416L133.09 415.96L132.94 415.93L132.78 415.89L132.63 415.86L132.48 415.83L132.34 415.8L132.19 415.77L132.05 415.74L131.9 415.72L131.76 415.7L131.62 415.68L131.48 415.66L131.35 415.64L131.21 415.62L131.08 415.6L130.95 415.59L130.81 415.58L130.68 415.56L130.55 415.55L130.43 415.54L130.3 415.53L130.17 415.52L130.05 415.52L129.92 415.51L129.8 415.5L129.67 415.5L129.55 415.49L129.43 415.49L129.31 415.49L129.19 415.48L129.07 415.48L128.95 415.48L128.83 415.48L128.71 415.48L128.59 415.48L128.47 415.48L128.35 415.48L128.24 415.48L128.12 415.48L128 415.48L223.48 510.95L223.44 510.83L223.4 510.71ZM214.56 443.8L212.46 427.02L195.67 424.92L182.03 422.82L216.13 456.92L214.56 443.8ZM217.18 325.72L217.18 325.95L217.18 326.19L217.18 326.43L217.18 326.67L217.18 326.9L217.18 327.14L217.19 327.38L217.19 327.62L217.19 327.86L217.19 328.11L217.2 328.35L217.2 328.6L217.21 328.84L217.21 329.09L217.22 329.34L217.23 329.59L217.24 329.84L217.25 330.1L217.26 330.36L217.27 330.61L217.28 330.87L217.29 331.14L217.31 331.4L217.32 331.67L217.34 331.94L217.36 332.22L217.38 332.49L217.4 332.77L217.42 333.05L217.45 333.34L217.47 333.63L217.5 333.92L217.53 334.21L217.56 334.51L217.6 334.81L217.63 335.12L217.67 335.42L217.7 335.74L219.8 350.43L289.57 420.2L304.79 422.3L305.06 422.3L305.33 422.3L305.6 422.3L305.87 422.31L306.14 422.32L306.41 422.33L306.67 422.34L306.93 422.35L307.19 422.36L307.45 422.38L307.71 422.39L307.96 422.41L308.22 422.43L308.47 422.44L308.72 422.46L308.98 422.48L309.22 422.5L309.47 422.52L309.72 422.54L309.97 422.56L310.21 422.58L310.46 422.6L310.7 422.62L310.94 422.64L311.19 422.65L311.43 422.67L311.67 422.69L311.91 422.71L312.15 422.72L312.39 422.74L312.62 422.75L312.86 422.77L313.1 422.78L313.34 422.79L313.57 422.8L313.81 422.8L314.05 422.81L314.28 422.82L314.52 422.82L314.75 422.82L217.18 325.25L217.18 325.48L217.18 325.72ZM221.22 282.3L221.14 282.61L221.06 282.93L220.98 283.26L220.89 283.6L220.81 283.95L220.73 284.31L220.64 284.67L220.56 285.05L220.47 285.43L220.39 285.83L220.3 286.23L220.21 286.64L220.12 287.07L220.03 287.5L219.94 287.94L219.85 288.39L219.76 288.84L219.67 289.31L219.58 289.79L219.49 290.27L219.39 290.77L219.3 291.27L219.2 291.79L219.11 292.31L219.01 292.84L218.92 293.38L218.82 293.93L218.72 294.49L218.62 295.06L218.52 295.64L218.42 296.22L218.32 296.82L218.22 297.43L218.12 298.04L218.02 298.66L217.91 299.3L217.81 299.94L217.7 300.59L338.89 421.77L339.4 421.73L339.9 421.68L340.41 421.64L340.92 421.58L341.42 421.53L341.92 421.47L342.42 421.4L342.91 421.34L343.41 421.27L343.9 421.2L344.39 421.12L344.88 421.04L345.37 420.96L345.85 420.88L346.34 420.79L346.82 420.7L347.3 420.61L347.77 420.52L348.25 420.43L348.72 420.33L349.19 420.23L349.66 420.13L350.13 420.02L350.59 419.92L351.06 419.81L351.52 419.71L351.98 419.6L352.44 419.49L352.89 419.37L353.34 419.26L353.8 419.15L354.25 419.03L354.69 418.92L355.14 418.8L355.58 418.69L356.02 418.57L356.46 418.45L356.9 418.33L357.34 418.22L357.77 418.1L221.38 281.7L221.3 282L221.22 282.3ZM227.67 411.28L241.84 413.38L260.2 415.48L222.95 378.23L225.57 397.11L227.67 411.28ZM236.19 253.4L235.99 253.68L235.79 253.95L235.59 254.23L235.38 254.51L235.17 254.78L234.97 255.06L234.76 255.34L234.55 255.61L234.34 255.89L234.13 256.17L233.92 256.45L233.71 256.73L233.5 257.01L233.29 257.29L233.08 257.57L232.87 257.86L232.67 258.14L232.46 258.43L232.25 258.71L232.05 259L231.84 259.29L231.64 259.58L231.44 259.87L231.24 260.16L231.05 260.45L230.85 260.74L230.66 261.04L230.47 261.34L230.28 261.63L230.09 261.93L229.91 262.24L229.73 262.54L229.55 262.84L229.38 263.15L229.21 263.46L229.04 263.77L228.88 264.08L228.72 264.39L375.08 410.75L375.27 410.65L375.46 410.54L375.66 410.42L375.86 410.3L376.07 410.17L376.28 410.04L376.5 409.91L376.72 409.77L376.95 409.62L377.18 409.48L377.42 409.32L377.66 409.16L377.91 409L378.17 408.84L378.43 408.66L378.69 408.49L378.96 408.31L379.24 408.12L379.52 407.93L379.8 407.74L380.09 407.54L380.39 407.34L380.69 407.13L381 406.91L381.31 406.7L381.63 406.47L381.95 406.25L382.28 406.02L382.61 405.78L382.95 405.54L383.29 405.3L383.64 405.05L384 404.79L384.36 404.53L384.72 404.27L385.09 404L385.47 403.73L385.85 403.45L386.23 403.17L386.62 402.89L236.59 252.85L236.39 253.13L236.19 253.4ZM261.67 231.22L261.35 231.42L261.04 231.62L260.72 231.83L260.41 232.04L260.09 232.24L259.78 232.46L259.46 232.67L259.15 232.89L258.83 233.1L258.52 233.32L258.2 233.54L257.89 233.77L257.57 233.99L257.26 234.22L256.94 234.45L256.63 234.68L256.31 234.91L256 235.15L255.69 235.38L255.37 235.62L255.06 235.86L254.74 236.11L254.43 236.35L254.11 236.6L253.8 236.85L253.48 237.1L253.17 237.35L252.85 237.61L252.54 237.86L252.22 238.12L251.91 238.38L251.59 238.65L251.28 238.91L250.96 239.18L250.65 239.44L250.33 239.72L250.02 239.99L249.7 240.26L399.74 390.3L399.92 390.11L400.11 389.91L400.3 389.71L400.49 389.51L400.69 389.3L400.89 389.08L401.09 388.85L401.29 388.62L401.5 388.38L401.7 388.13L401.92 387.88L402.13 387.62L402.35 387.35L402.57 387.08L402.79 386.8L403.01 386.52L403.24 386.23L403.47 385.93L403.7 385.62L403.93 385.31L404.17 384.99L404.41 384.67L404.65 384.34L404.9 384L405.15 383.66L405.4 383.3L405.65 382.95L405.91 382.58L406.17 382.21L406.43 381.84L406.69 381.45L406.96 381.06L407.22 380.67L407.5 380.26L407.77 379.85L408.05 379.44L408.33 379.01L408.61 378.58L408.89 378.15L409.18 377.7L262.3 230.82L261.98 231.02L261.67 231.22ZM295.93 218.99L295.43 219.07L294.93 219.15L294.44 219.23L293.95 219.31L293.47 219.39L292.99 219.47L292.51 219.56L292.03 219.64L291.56 219.73L291.09 219.81L290.62 219.9L290.16 219.99L289.7 220.08L289.24 220.17L288.78 220.27L288.32 220.36L287.87 220.46L287.42 220.56L286.97 220.66L286.52 220.76L286.07 220.87L285.63 220.98L285.19 221.09L284.74 221.2L284.3 221.32L283.86 221.44L283.43 221.56L282.99 221.68L282.55 221.81L282.12 221.94L281.68 222.07L281.25 222.21L280.81 222.35L280.38 222.5L279.95 222.64L279.51 222.8L279.08 222.95L416.52 360.39L416.63 360.1L416.73 359.8L416.84 359.49L416.94 359.17L417.05 358.84L417.15 358.51L417.26 358.16L417.36 357.81L417.47 357.45L417.57 357.08L417.68 356.7L417.78 356.32L417.89 355.92L417.99 355.52L418.1 355.11L418.2 354.69L418.31 354.26L418.41 353.82L418.52 353.37L418.62 352.92L418.73 352.45L418.83 351.98L418.94 351.5L419.04 351.01L419.15 350.52L419.25 350.01L419.36 349.5L419.46 348.97L419.57 348.44L419.67 347.9L419.78 347.35L419.88 346.8L419.99 346.23L420.09 345.66L420.2 345.07L420.3 344.48L420.41 343.88L420.51 343.27L420.62 342.66L420.72 342.03L297.44 218.75L296.93 218.83L296.43 218.91L295.93 218.99ZM422.26 318.64L422.22 318.32L422.19 318.01L422.15 317.69L422.12 317.38L422.09 317.06L422.06 316.74L422.03 316.43L422.01 316.11L421.98 315.8L421.96 315.48L421.94 315.16L421.91 314.84L421.89 314.52L421.87 314.2L421.85 313.88L421.83 313.56L421.81 313.24L421.79 312.91L421.77 312.59L421.75 312.27L421.73 311.94L421.71 311.61L421.69 311.28L421.67 310.95L421.65 310.62L421.63 310.29L421.6 309.96L421.58 309.62L421.56 309.29L421.53 308.95L421.51 308.61L421.48 308.27L421.45 307.93L421.42 307.58L421.39 307.24L421.36 306.89L421.32 306.54L421.28 306.19L421.25 305.84L419.67 293.77L346.23 220.33L334.16 218.75L333.85 218.75L333.53 218.75L333.22 218.75L332.9 218.74L332.59 218.73L332.28 218.72L331.96 218.71L331.65 218.7L331.33 218.69L331.02 218.67L330.7 218.66L330.39 218.64L330.07 218.62L329.76 218.61L329.44 218.59L329.13 218.57L328.81 218.55L328.5 218.53L328.18 218.51L327.55 218.47L327.24 218.45L326.92 218.43L326.61 218.41L326.3 218.4L325.98 218.38L325.67 218.36L325.35 218.34L325.04 218.33L324.72 218.31L324.41 218.3L324.09 218.28L323.78 218.27L323.46 218.26L323.15 218.25L322.83 218.24L322.52 218.24L322.2 218.23L321.89 218.23L321.57 218.23L422.3 318.95L422.26 318.64ZM412.85 243.41L410.75 229.25L396.59 227.15L375.61 224.52L416 264.92L412.85 243.41ZM415.03 124.8L415.06 125.04L415.09 125.27L415.12 125.51L415.15 125.75L415.18 125.98L415.21 126.22L415.23 126.46L415.25 126.7L415.28 126.94L415.3 127.17L415.31 127.41L415.33 127.66L415.35 127.9L415.36 128.14L415.38 128.38L415.39 128.62L415.4 128.87L415.41 129.11L415.42 129.36L415.43 129.61L415.44 129.86L415.44 130.11L415.45 130.36L415.45 130.61L415.46 130.86L415.46 131.12L415.46 131.37L415.47 131.63L415.47 131.89L415.47 132.15L415.47 132.41L415.47 132.68L415.47 132.94L415.47 133.21L415.48 133.48L415.48 133.75L415.48 134.02L415.48 134.3L417.57 149.51L489.97 221.9L505.7 224L505.94 224L506.18 224L506.41 224.01L506.65 224.01L506.89 224.02L507.12 224.03L507.36 224.04L507.59 224.05L507.83 224.07L508.07 224.08L508.3 224.1L508.54 224.11L508.77 224.13L509.01 224.15L509.25 224.17L509.48 224.18L509.72 224.2L509.95 224.22L510.19 224.24L510.66 224.28L510.9 224.3L511.13 224.32L511.37 224.34L511.61 224.36L511.84 224.38L512.08 224.39L512.31 224.41L512.55 224.43L512.79 224.44L513.02 224.46L513.26 224.47L513.5 224.48L513.73 224.49L513.97 224.5L514.2 224.51L514.44 224.52L514.68 224.52L514.91 224.52L515.15 224.52L414.95 124.33L414.99 124.56L415.03 124.8ZM418.91 81.66L418.79 82.09L418.68 82.53L418.56 82.98L418.44 83.42L418.33 83.86L418.21 84.31L418.1 84.76L417.98 85.21L417.87 85.67L417.76 86.12L417.65 86.58L417.54 87.04L417.43 87.5L417.33 87.96L417.22 88.43L417.12 88.9L417.02 89.36L416.92 89.84L416.82 90.31L416.73 90.78L416.63 91.26L416.54 91.74L416.45 92.22L416.37 92.7L416.28 93.19L416.2 93.68L416.12 94.16L416.05 94.66L415.98 95.15L415.91 95.64L415.84 96.14L415.78 96.64L415.72 97.14L415.66 97.64L415.61 98.15L415.56 98.65L415.52 99.16L415.48 99.67L539.8 224L540.15 223.97L540.5 223.94L540.86 223.91L541.22 223.87L541.59 223.83L541.97 223.78L542.35 223.74L542.74 223.69L543.14 223.63L543.54 223.57L543.95 223.51L544.37 223.45L544.79 223.38L545.22 223.31L545.66 223.24L546.1 223.16L546.55 223.08L547 223L547.47 222.91L547.93 222.82L548.41 222.73L548.89 222.63L549.38 222.53L549.88 222.43L550.38 222.32L550.89 222.21L551.4 222.1L551.92 221.98L552.45 221.86L552.98 221.74L553.52 221.61L554.07 221.48L554.63 221.35L555.19 221.21L555.75 221.07L556.33 220.93L556.91 220.79L557.5 220.64L558.09 220.48L558.69 220.33L419.15 80.79L419.03 81.22L418.91 81.66ZM426.49 213.51L443.28 215.61L461.64 218.23L421.77 178.36L424.39 196.72L426.49 213.51Z" id="d137xhLAH"></path><path d="M447.05 234.68C447.05 234.68 447.05 234.68 447.05 234.68C436.44 236.11 430.55 236.91 429.37 237.07C429.37 237.07 429.37 237.07 429.37 237.07C426.63 216.8 425.1 205.54 424.8 203.28C424.8 203.28 424.8 203.28 424.8 203.28C435.4 201.85 441.29 201.05 442.47 200.89C442.47 200.89 442.47 200.89 442.47 200.89C445.22 221.16 446.74 232.43 447.05 234.68Z" id="b6faifs0AP"></path><path d="M411.93 237.87C411.93 237.87 411.93 237.87 411.93 237.87C401.32 239.31 395.43 240.11 394.25 240.27C394.25 240.27 394.25 240.27 394.25 240.27C391.51 219.99 389.98 208.73 389.68 206.48C389.68 206.48 389.68 206.48 389.68 206.48C400.28 205.04 406.17 204.24 407.35 204.08C407.35 204.08 407.35 204.08 407.35 204.08C410.1 224.36 411.62 235.62 411.93 237.87Z" id="e4CG9Rblo"></path><path d="M248.78 433.07C248.78 433.07 248.78 433.07 248.78 433.07C238.17 434.5 232.28 435.3 231.1 435.46C231.1 435.46 231.1 435.46 231.1 435.46C228.36 415.19 226.83 403.93 226.53 401.67C226.53 401.67 226.53 401.67 226.53 401.67C237.13 400.24 243.02 399.44 244.2 399.28C244.2 399.28 244.2 399.28 244.2 399.28C246.95 419.55 248.47 430.81 248.78 433.07Z" id="a2gTPtf9Gw"></path><path d="M195.15 430.69L191.48 404.98L209.31 402.36L213.51 435.93L203.02 437.51L199.34 435.93L195.15 430.69Z" id="c1hM1q1TzX"></path></defs><g><g><g><use xlink:href="#d137xhLAH" opacity="1" fill="#46433a" fill-opacity="1"></use><g><use xlink:href="#d137xhLAH" opacity="1" fill-opacity="0" stroke="#000000" stroke-width="1" stroke-opacity="0"></use></g></g><g><use xlink:href="#b6faifs0AP" opacity="1" fill="#ffffff" fill-opacity="1"></use><g><use xlink:href="#b6faifs0AP" opacity="1" fill-opacity="0" stroke="#000000" stroke-width="1" stroke-opacity="0"></use></g></g><g><use xlink:href="#e4CG9Rblo" opacity="1" fill="#ffffff" fill-opacity="1"></use><g><use xlink:href="#e4CG9Rblo" opacity="1" fill-opacity="0" stroke="#000000" stroke-width="1" stroke-opacity="0"></use></g></g><g><use xlink:href="#a2gTPtf9Gw" opacity="1" fill="#ffffff" fill-opacity="1"></use><g><use xlink:href="#a2gTPtf9Gw" opacity="1" fill-opacity="0" stroke="#000000" stroke-width="1" stroke-opacity="0"></use></g></g><g><use xlink:href="#c1hM1q1TzX" opacity="1" fill="#ffffff" fill-opacity="1"></use><g><use xlink:href="#c1hM1q1TzX" opacity="1" fill-opacity="0" stroke="#000000" stroke-width="1" stroke-opacity="0"></use></g></g></g></g></svg>